# xmcd CD database file
#
# Track frame offsets:
#	150
#	10896
#	18969
#	29014
#	39993
#	50472
#	59864
#	69956
#	81751
#	93053
#	103591
#	109450
#	116238
#	125079
#	136384
#
# Disc length: 1865 seconds
#
# Revision: 0
# Processed by: cddbd v1.5.1PL0 Copyright (c) Steve Scherf et al.
# Submitted via: CDex 1.51
#
DISCID=d007470f
DTITLE=Peggy Honeywell - Faint Humms
DYEAR=2003
DGENRE=Country
TTITLE0=Peach And Yellow
TTITLE1=R.R.V.
TTITLE2=2000 Years
TTITLE3=Sing Sung Saing
TTITLE4=Kitty Paws
TTITLE5=Eons Later
TTITLE6=Face Reader
TTITLE7=Squirell Bridge
TTITLE8=Faint
TTITLE9=Smile And Compliment
TTITLE10=Drama King
TTITLE11=Little Birdie
TTITLE12=Worried Man
TTITLE13=Humms
TTITLE14=Song
EXTD=YEAR: 2003
EXTT0=
EXTT1=
EXTT2=
EXTT3=
EXTT4=
EXTT5=
EXTT6=
EXTT7=
EXTT8=
EXTT9=
EXTT10=
EXTT11=
EXTT12=
EXTT13=
EXTT14=
PLAYORDER=
